<?xml version="1.0" encoding="us-ascii" standalone="no"?><svg xmlns="http://www.w3.org/2000/svg" xmlns:xlink="http://www.w3.org/1999/xlink" contentStyleType="text/css" height="494px" preserveAspectRatio="none" style="width:1200px;height:494px;background:#FFFFFF;" version="1.1" viewBox="0 0 1200 494" width="1200px" zoomAndPan="magnify"><defs/><g><!--class Document--><g id="elem_Document"><rect codeLine="2" fill="#F1F1F1" height="48" id="Document" rx="2.5" ry="2.5" style="stroke:#181818;stroke-width:0.5;" width="96" x="7" y="7"/><ellipse cx="22" cy="23" fill="#B4A7E5" rx="11" ry="11" style="stroke:#181818;stroke-width:1.0;"/><path d="M22.9531,19.6406 L22.9531,26.2969 L24.6719,26.2969 Q25.2813,26.2969 25.5469,26.5313 Q25.8125,26.7656 25.8125,27.1563 Q25.8125,27.5313 25.5469,27.7656 Q25.2813,28 24.6719,28 L19.5313,28 Q18.9219,28 18.6563,27.7656 Q18.3906,27.5313 18.3906,27.1406 Q18.3906,26.7656 18.6563,26.5313 Q18.9219,26.2969 19.5313,26.2969 L21.25,26.2969 L21.25,19.6406 L19.5313,19.6406 Q18.9219,19.6406 18.6563,19.4063 Q18.3906,19.1719 18.3906,18.7813 Q18.3906,18.4063 18.6563,18.1719 Q18.9219,17.9375 19.5313,17.9375 L24.6719,17.9375 Q25.2813,17.9375 25.5469,18.1719 Q25.8125,18.4063 25.8125,18.7813 Q25.8125,19.1719 25.5469,19.4063 Q25.2813,19.6406 24.6719,19.6406 L22.9531,19.6406 Z " fill="#000000"/><text fill="#000000" font-family="sans-serif" font-size="14" font-style="italic" lengthAdjust="spacing" textLength="64" x="36" y="28.7285">Document</text><line style="stroke:#181818;stroke-width:0.5;" x1="8" x2="102" y1="39" y2="39"/><line style="stroke:#181818;stroke-width:0.5;" x1="8" x2="102" y1="47" y2="47"/></g><!--class Calendar--><g id="elem_Calendar"><rect codeLine="4" fill="#F1F1F1" height="48" id="Calendar" rx="2.5" ry="2.5" style="stroke:#181818;stroke-width:0.5;" width="90" x="225" y="115"/><ellipse cx="240" cy="131" fill="#ADD1B2" rx="11" ry="11" style="stroke:#181818;stroke-width:1.0;"/><path d="M238.8594,131.7969 L238.8594,134.2969 L243.1875,134.2969 L243.1875,133.375 Q243.1875,132.7656 243.4219,132.5 Q243.6719,132.2344 244.0469,132.2344 Q244.4219,132.2344 244.6563,132.5 Q244.8906,132.7656 244.8906,133.375 L244.8906,136 L236.8906,136 Q236.2656,136 236,135.7656 Q235.75,135.5313 235.75,135.1406 Q235.75,134.7656 236.0156,134.5313 Q236.2813,134.2969 236.8906,134.2969 L237.1563,134.2969 L237.1563,127.6406 L236.8906,127.6406 Q236.2656,127.6406 236,127.4063 Q235.75,127.1719 235.75,126.7813 Q235.75,126.4063 236,126.1719 Q236.2656,125.9375 236.8906,125.9375 L244.5156,125.9375 L244.5156,128.5313 Q244.5156,129.1406 244.2813,129.4063 Q244.0625,129.6563 243.6719,129.6563 Q243.2969,129.6563 243.0625,129.4063 Q242.8281,129.1406 242.8281,128.5313 L242.8281,127.6406 L238.8594,127.6406 L238.8594,130.0938 L240.3438,130.0938 Q240.3438,129.4375 240.4688,129.25 Q240.7344,128.8438 241.2031,128.8438 Q241.5781,128.8438 241.8125,129.1094 Q242.0469,129.3594 242.0469,129.9688 L242.0469,131.9375 Q242.0469,132.4844 241.9219,132.6719 Q241.6563,133.0625 241.2031,133.0625 Q240.7344,133.0625 240.4688,132.6563 Q240.3438,132.4688 240.3438,131.7969 L238.8594,131.7969 Z " fill="#000000"/><text fill="#000000" font-family="sans-serif" font-size="14" lengthAdjust="spacing" textLength="58" x="254" y="136.7285">Calendar</text><line style="stroke:#181818;stroke-width:0.5;" x1="226" x2="314" y1="147" y2="147"/><line style="stroke:#181818;stroke-width:0.5;" x1="226" x2="314" y1="155" y2="155"/></g><!--class CsvCalendar--><g id="elem_CsvCalendar"><rect codeLine="5" fill="#F1F1F1" height="48" id="CsvCalendar" rx="2.5" ry="2.5" style="stroke:#181818;stroke-width:0.5;" width="114" x="138" y="7"/><ellipse cx="153" cy="23" fill="#F1F1F1" rx="11" ry="11" style="stroke:#181818;stroke-width:1.0;"/><path d="M153.625,24.5469 L153.625,26.2969 L155.3281,26.2969 Q155.9531,26.2969 156.2031,26.5313 Q156.4688,26.7656 156.4688,27.1563 Q156.4688,27.5313 156.2031,27.7656 Q155.9531,28 155.3281,28 L151.6563,28 Q151.0313,28 150.7656,27.7656 Q150.5156,27.5313 150.5156,27.1406 Q150.5156,26.7656 150.7813,26.5313 Q151.0469,26.2969 151.6563,26.2969 L151.9219,26.2969 L151.9219,19.6406 L151.6563,19.6406 Q151.0313,19.6406 150.7656,19.4063 Q150.5156,19.1719 150.5156,18.7813 Q150.5156,18.4063 150.7656,18.1719 Q151.0313,17.9375 151.6563,17.9375 L155.5625,17.9375 Q157.2969,17.9375 158.2969,18.8906 Q159.3125,19.8281 159.3125,21.1719 Q159.3125,21.9219 158.9688,22.5938 Q158.7188,23.0781 158.1094,23.5781 Q157.5156,24.0625 156.875,24.3125 Q156.25,24.5469 155.2344,24.5469 L153.625,24.5469 Z M153.625,22.8438 L155.1875,22.8438 Q156.3125,22.8438 156.9531,22.3438 Q157.6094,21.8438 157.6094,21.1406 Q157.6094,20.5313 157.0781,20.0938 Q156.5625,19.6406 155.5781,19.6406 L153.625,19.6406 L153.625,22.8438 Z " fill="#000000"/><text fill="#000000" font-family="sans-serif" font-size="14" lengthAdjust="spacing" textLength="82" x="167" y="28.7285">CsvCalendar</text><line style="stroke:#181818;stroke-width:0.5;" x1="139" x2="251" y1="39" y2="39"/><line style="stroke:#181818;stroke-width:0.5;" x1="139" x2="251" y1="47" y2="47"/></g><!--class TextCalendar--><g id="elem_TextCalendar"><rect codeLine="6" fill="#F1F1F1" height="48" id="TextCalendar" rx="2.5" ry="2.5" style="stroke:#181818;stroke-width:0.5;" width="117" x="287.5" y="7"/><ellipse cx="302.5" cy="23" fill="#F1F1F1" rx="11" ry="11" style="stroke:#181818;stroke-width:1.0;"/><path d="M303.125,24.5469 L303.125,26.2969 L304.8281,26.2969 Q305.4531,26.2969 305.7031,26.5313 Q305.9688,26.7656 305.9688,27.1563 Q305.9688,27.5313 305.7031,27.7656 Q305.4531,28 304.8281,28 L301.1563,28 Q300.5313,28 300.2656,27.7656 Q300.0156,27.5313 300.0156,27.1406 Q300.0156,26.7656 300.2813,26.5313 Q300.5469,26.2969 301.1563,26.2969 L301.4219,26.2969 L301.4219,19.6406 L301.1563,19.6406 Q300.5313,19.6406 300.2656,19.4063 Q300.0156,19.1719 300.0156,18.7813 Q300.0156,18.4063 300.2656,18.1719 Q300.5313,17.9375 301.1563,17.9375 L305.0625,17.9375 Q306.7969,17.9375 307.7969,18.8906 Q308.8125,19.8281 308.8125,21.1719 Q308.8125,21.9219 308.4688,22.5938 Q308.2188,23.0781 307.6094,23.5781 Q307.0156,24.0625 306.375,24.3125 Q305.75,24.5469 304.7344,24.5469 L303.125,24.5469 Z M303.125,22.8438 L304.6875,22.8438 Q305.8125,22.8438 306.4531,22.3438 Q307.1094,21.8438 307.1094,21.1406 Q307.1094,20.5313 306.5781,20.0938 Q306.0625,19.6406 305.0781,19.6406 L303.125,19.6406 L303.125,22.8438 Z " fill="#000000"/><text fill="#000000" font-family="sans-serif" font-size="14" lengthAdjust="spacing" textLength="85" x="316.5" y="28.7285">TextCalendar</text><line style="stroke:#181818;stroke-width:0.5;" x1="288.5" x2="403.5" y1="39" y2="39"/><line style="stroke:#181818;stroke-width:0.5;" x1="288.5" x2="403.5" y1="47" y2="47"/></g><!--class ICalCalendar--><g id="elem_ICalCalendar"><rect codeLine="7" fill="#F1F1F1" height="48" id="ICalCalendar" rx="2.5" ry="2.5" style="stroke:#181818;stroke-width:0.5;" width="114" x="440" y="7"/><ellipse cx="455" cy="23" fill="#F1F1F1" rx="11" ry="11" style="stroke:#181818;stroke-width:1.0;"/><path d="M455.625,24.5469 L455.625,26.2969 L457.3281,26.2969 Q457.9531,26.2969 458.2031,26.5313 Q458.4688,26.7656 458.4688,27.1563 Q458.4688,27.5313 458.2031,27.7656 Q457.9531,28 457.3281,28 L453.6563,28 Q453.0313,28 452.7656,27.7656 Q452.5156,27.5313 452.5156,27.1406 Q452.5156,26.7656 452.7813,26.5313 Q453.0469,26.2969 453.6563,26.2969 L453.9219,26.2969 L453.9219,19.6406 L453.6563,19.6406 Q453.0313,19.6406 452.7656,19.4063 Q452.5156,19.1719 452.5156,18.7813 Q452.5156,18.4063 452.7656,18.1719 Q453.0313,17.9375 453.6563,17.9375 L457.5625,17.9375 Q459.2969,17.9375 460.2969,18.8906 Q461.3125,19.8281 461.3125,21.1719 Q461.3125,21.9219 460.9688,22.5938 Q460.7188,23.0781 460.1094,23.5781 Q459.5156,24.0625 458.875,24.3125 Q458.25,24.5469 457.2344,24.5469 L455.625,24.5469 Z M455.625,22.8438 L457.1875,22.8438 Q458.3125,22.8438 458.9531,22.3438 Q459.6094,21.8438 459.6094,21.1406 Q459.6094,20.5313 459.0781,20.0938 Q458.5625,19.6406 457.5781,19.6406 L455.625,19.6406 L455.625,22.8438 Z " fill="#000000"/><text fill="#000000" font-family="sans-serif" font-size="14" lengthAdjust="spacing" textLength="82" x="469" y="28.7285">ICalCalendar</text><line style="stroke:#181818;stroke-width:0.5;" x1="441" x2="553" y1="39" y2="39"/><line style="stroke:#181818;stroke-width:0.5;" x1="441" x2="553" y1="47" y2="47"/></g><!--class Event--><g id="elem_Event"><rect codeLine="14" fill="#F1F1F1" height="48" id="Event" rx="2.5" ry="2.5" style="stroke:#181818;stroke-width:0.5;" width="68" x="426" y="223"/><ellipse cx="441" cy="239" fill="#ADD1B2" rx="11" ry="11" style="stroke:#181818;stroke-width:1.0;"/><path d="M439.8594,239.7969 L439.8594,242.2969 L444.1875,242.2969 L444.1875,241.375 Q444.1875,240.7656 444.4219,240.5 Q444.6719,240.2344 445.0469,240.2344 Q445.4219,240.2344 445.6563,240.5 Q445.8906,240.7656 445.8906,241.375 L445.8906,244 L437.8906,244 Q437.2656,244 437,243.7656 Q436.75,243.5313 436.75,243.1406 Q436.75,242.7656 437.0156,242.5313 Q437.2813,242.2969 437.8906,242.2969 L438.1563,242.2969 L438.1563,235.6406 L437.8906,235.6406 Q437.2656,235.6406 437,235.4063 Q436.75,235.1719 436.75,234.7813 Q436.75,234.4063 437,234.1719 Q437.2656,233.9375 437.8906,233.9375 L445.5156,233.9375 L445.5156,236.5313 Q445.5156,237.1406 445.2813,237.4063 Q445.0625,237.6563 444.6719,237.6563 Q444.2969,237.6563 444.0625,237.4063 Q443.8281,237.1406 443.8281,236.5313 L443.8281,235.6406 L439.8594,235.6406 L439.8594,238.0938 L441.3438,238.0938 Q441.3438,237.4375 441.4688,237.25 Q441.7344,236.8438 442.2031,236.8438 Q442.5781,236.8438 442.8125,237.1094 Q443.0469,237.3594 443.0469,237.9688 L443.0469,239.9375 Q443.0469,240.4844 442.9219,240.6719 Q442.6563,241.0625 442.2031,241.0625 Q441.7344,241.0625 441.4688,240.6563 Q441.3438,240.4688 441.3438,239.7969 L439.8594,239.7969 Z " fill="#000000"/><text fill="#000000" font-family="sans-serif" font-size="14" lengthAdjust="spacing" textLength="36" x="455" y="244.7285">Event</text><line style="stroke:#181818;stroke-width:0.5;" x1="427" x2="493" y1="255" y2="255"/><line style="stroke:#181818;stroke-width:0.5;" x1="427" x2="493" y1="263" y2="263"/></g><!--class CsvEvent--><g id="elem_CsvEvent"><rect codeLine="15" fill="#F1F1F1" height="48" id="CsvEvent" rx="2.5" ry="2.5" style="stroke:#181818;stroke-width:0.5;" width="92" x="350" y="115"/><ellipse cx="365" cy="131" fill="#F1F1F1" rx="11" ry="11" style="stroke:#181818;stroke-width:1.0;"/><path d="M365.625,132.5469 L365.625,134.2969 L367.3281,134.2969 Q367.9531,134.2969 368.2031,134.5313 Q368.4688,134.7656 368.4688,135.1563 Q368.4688,135.5313 368.2031,135.7656 Q367.9531,136 367.3281,136 L363.6563,136 Q363.0313,136 362.7656,135.7656 Q362.5156,135.5313 362.5156,135.1406 Q362.5156,134.7656 362.7813,134.5313 Q363.0469,134.2969 363.6563,134.2969 L363.9219,134.2969 L363.9219,127.6406 L363.6563,127.6406 Q363.0313,127.6406 362.7656,127.4063 Q362.5156,127.1719 362.5156,126.7813 Q362.5156,126.4063 362.7656,126.1719 Q363.0313,125.9375 363.6563,125.9375 L367.5625,125.9375 Q369.2969,125.9375 370.2969,126.8906 Q371.3125,127.8281 371.3125,129.1719 Q371.3125,129.9219 370.9688,130.5938 Q370.7188,131.0781 370.1094,131.5781 Q369.5156,132.0625 368.875,132.3125 Q368.25,132.5469 367.2344,132.5469 L365.625,132.5469 Z M365.625,130.8438 L367.1875,130.8438 Q368.3125,130.8438 368.9531,130.3438 Q369.6094,129.8438 369.6094,129.1406 Q369.6094,128.5313 369.0781,128.0938 Q368.5625,127.6406 367.5781,127.6406 L365.625,127.6406 L365.625,130.8438 Z " fill="#000000"/><text fill="#000000" font-family="sans-serif" font-size="14" lengthAdjust="spacing" textLength="60" x="379" y="136.7285">CsvEvent</text><line style="stroke:#181818;stroke-width:0.5;" x1="351" x2="441" y1="147" y2="147"/><line style="stroke:#181818;stroke-width:0.5;" x1="351" x2="441" y1="155" y2="155"/></g><!--class TextEvent--><g id="elem_TextEvent"><rect codeLine="16" fill="#F1F1F1" height="48" id="TextEvent" rx="2.5" ry="2.5" style="stroke:#181818;stroke-width:0.5;" width="95" x="477.5" y="115"/><ellipse cx="492.5" cy="131" fill="#F1F1F1" rx="11" ry="11" style="stroke:#181818;stroke-width:1.0;"/><path d="M493.125,132.5469 L493.125,134.2969 L494.8281,134.2969 Q495.4531,134.2969 495.7031,134.5313 Q495.9688,134.7656 495.9688,135.1563 Q495.9688,135.5313 495.7031,135.7656 Q495.4531,136 494.8281,136 L491.1563,136 Q490.5313,136 490.2656,135.7656 Q490.0156,135.5313 490.0156,135.1406 Q490.0156,134.7656 490.2813,134.5313 Q490.5469,134.2969 491.1563,134.2969 L491.4219,134.2969 L491.4219,127.6406 L491.1563,127.6406 Q490.5313,127.6406 490.2656,127.4063 Q490.0156,127.1719 490.0156,126.7813 Q490.0156,126.4063 490.2656,126.1719 Q490.5313,125.9375 491.1563,125.9375 L495.0625,125.9375 Q496.7969,125.9375 497.7969,126.8906 Q498.8125,127.8281 498.8125,129.1719 Q498.8125,129.9219 498.4688,130.5938 Q498.2188,131.0781 497.6094,131.5781 Q497.0156,132.0625 496.375,132.3125 Q495.75,132.5469 494.7344,132.5469 L493.125,132.5469 Z M493.125,130.8438 L494.6875,130.8438 Q495.8125,130.8438 496.4531,130.3438 Q497.1094,129.8438 497.1094,129.1406 Q497.1094,128.5313 496.5781,128.0938 Q496.0625,127.6406 495.0781,127.6406 L493.125,127.6406 L493.125,130.8438 Z " fill="#000000"/><text fill="#000000" font-family="sans-serif" font-size="14" lengthAdjust="spacing" textLength="63" x="506.5" y="136.7285">TextEvent</text><line style="stroke:#181818;stroke-width:0.5;" x1="478.5" x2="571.5" y1="147" y2="147"/><line style="stroke:#181818;stroke-width:0.5;" x1="478.5" x2="571.5" y1="155" y2="155"/></g><!--class ICalEvent--><g id="elem_ICalEvent"><rect codeLine="17" fill="#F1F1F1" height="48" id="ICalEvent" rx="2.5" ry="2.5" style="stroke:#181818;stroke-width:0.5;" width="92" x="608" y="115"/><ellipse cx="623" cy="131" fill="#F1F1F1" rx="11" ry="11" style="stroke:#181818;stroke-width:1.0;"/><path d="M623.625,132.5469 L623.625,134.2969 L625.3281,134.2969 Q625.9531,134.2969 626.2031,134.5313 Q626.4688,134.7656 626.4688,135.1563 Q626.4688,135.5313 626.2031,135.7656 Q625.9531,136 625.3281,136 L621.6563,136 Q621.0313,136 620.7656,135.7656 Q620.5156,135.5313 620.5156,135.1406 Q620.5156,134.7656 620.7813,134.5313 Q621.0469,134.2969 621.6563,134.2969 L621.9219,134.2969 L621.9219,127.6406 L621.6563,127.6406 Q621.0313,127.6406 620.7656,127.4063 Q620.5156,127.1719 620.5156,126.7813 Q620.5156,126.4063 620.7656,126.1719 Q621.0313,125.9375 621.6563,125.9375 L625.5625,125.9375 Q627.2969,125.9375 628.2969,126.8906 Q629.3125,127.8281 629.3125,129.1719 Q629.3125,129.9219 628.9688,130.5938 Q628.7188,131.0781 628.1094,131.5781 Q627.5156,132.0625 626.875,132.3125 Q626.25,132.5469 625.2344,132.5469 L623.625,132.5469 Z M623.625,130.8438 L625.1875,130.8438 Q626.3125,130.8438 626.9531,130.3438 Q627.6094,129.8438 627.6094,129.1406 Q627.6094,128.5313 627.0781,128.0938 Q626.5625,127.6406 625.5781,127.6406 L623.625,127.6406 L623.625,130.8438 Z " fill="#000000"/><text fill="#000000" font-family="sans-serif" font-size="14" lengthAdjust="spacing" textLength="60" x="637" y="136.7285">ICalEvent</text><line style="stroke:#181818;stroke-width:0.5;" x1="609" x2="699" y1="147" y2="147"/><line style="stroke:#181818;stroke-width:0.5;" x1="609" x2="699" y1="155" y2="155"/></g><!--class Recurrence--><g id="elem_Recurrence"><rect codeLine="23" fill="#F1F1F1" height="48" id="Recurrence" rx="2.5" ry="2.5" style="stroke:#181818;stroke-width:0.5;" width="106" x="809" y="115"/><ellipse cx="824" cy="131" fill="#A9DCDF" rx="11" ry="11" style="stroke:#181818;stroke-width:1.0;"/><path d="M826.1875,132.7656 L822.0469,132.7656 L821.625,133.7969 L822.0469,133.7969 Q822.6563,133.7969 822.9219,134.0313 Q823.1875,134.2656 823.1875,134.6563 Q823.1875,135.0313 822.9219,135.2656 Q822.6563,135.5 822.0469,135.5 L819.75,135.5 Q819.1406,135.5 818.8906,135.2656 Q818.625,135.0313 818.625,134.6406 Q818.625,134.2656 818.9063,134.0313 Q819.1719,133.7813 819.7969,133.7969 L822.4688,127.1406 L821.3594,127.1406 Q820.75,127.1406 820.4844,126.9063 Q820.2188,126.6719 820.2188,126.2813 Q820.2188,125.9063 820.4844,125.6719 Q820.75,125.4375 821.3594,125.4375 L825.0313,125.4375 L828.4219,133.7969 Q829.0156,133.7969 829.2031,133.9375 Q829.5938,134.2031 829.5938,134.6563 Q829.5938,135.0313 829.3281,135.2656 Q829.0781,135.5 828.4688,135.5 L826.1719,135.5 Q825.5625,135.5 825.2969,135.2656 Q825.0313,135.0313 825.0313,134.6406 Q825.0313,134.2656 825.2969,134.0313 Q825.5625,133.7969 826.1719,133.7969 L826.5938,133.7969 L826.1875,132.7656 Z M825.4688,131.0625 L824.1094,127.6875 L822.7344,131.0625 L825.4688,131.0625 Z " fill="#000000"/><text fill="#000000" font-family="sans-serif" font-size="14" font-style="italic" lengthAdjust="spacing" textLength="74" x="838" y="136.7285">Recurrence</text><line style="stroke:#181818;stroke-width:0.5;" x1="810" x2="914" y1="147" y2="147"/><line style="stroke:#181818;stroke-width:0.5;" x1="810" x2="914" y1="155" y2="155"/></g><!--class NoRecurrence--><g id="elem_NoRecurrence"><rect codeLine="24" fill="#F1F1F1" height="48" id="NoRecurrence" rx="2.5" ry="2.5" style="stroke:#181818;stroke-width:0.5;" width="123" x="529.5" y="223"/><ellipse cx="544.5" cy="239" fill="#ADD1B2" rx="11" ry="11" style="stroke:#181818;stroke-width:1.0;"/><path d="M547.2656,234.875 Q547.4219,234.6563 547.6094,234.5469 Q547.7969,234.4375 548.0156,234.4375 Q548.3906,234.4375 548.625,234.7031 Q548.8594,234.9531 548.8594,235.5625 L548.8594,237.0156 Q548.8594,237.625 548.625,237.8906 Q548.3906,238.1563 548.0156,238.1563 Q547.6719,238.1563 547.4688,237.9531 Q547.2656,237.7656 547.1563,237.25 Q547.1094,236.8906 546.9219,236.7031 Q546.5938,236.3281 545.9844,236.1094 Q545.375,235.8906 544.75,235.8906 Q543.9844,235.8906 543.3438,236.2188 Q542.7188,236.5469 542.2188,237.2969 Q541.7344,238.0469 541.7344,239.0781 L541.7344,240.1719 Q541.7344,241.4063 542.625,242.2344 Q543.5156,243.0469 545.1094,243.0469 Q546.0469,243.0469 546.7031,242.7969 Q547.0938,242.6406 547.5156,242.2031 Q547.7813,241.9375 547.9219,241.8594 Q548.0781,241.7813 548.2813,241.7813 Q548.6094,241.7813 548.8594,242.0469 Q549.125,242.2969 549.125,242.6406 Q549.125,242.9844 548.7813,243.3906 Q548.2813,243.9688 547.4844,244.2969 Q546.4063,244.75 545.1094,244.75 Q543.5938,244.75 542.3906,244.125 Q541.4063,243.625 540.7188,242.5625 Q540.0313,241.4844 540.0313,240.2031 L540.0313,239.0469 Q540.0313,237.7188 540.6406,236.5781 Q541.2656,235.4219 542.3594,234.8125 Q543.4531,234.1875 544.6875,234.1875 Q545.4219,234.1875 546.0625,234.3594 Q546.7188,234.5156 547.2656,234.875 Z " fill="#000000"/><text fill="#000000" font-family="sans-serif" font-size="14" lengthAdjust="spacing" textLength="91" x="558.5" y="244.7285">NoRecurrence</text><line style="stroke:#181818;stroke-width:0.5;" x1="530.5" x2="651.5" y1="255" y2="255"/><line style="stroke:#181818;stroke-width:0.5;" x1="530.5" x2="651.5" y1="263" y2="263"/></g><!--class DailyRecurrence--><g id="elem_DailyRecurrence"><rect codeLine="25" fill="#F1F1F1" height="48" id="DailyRecurrence" rx="2.5" ry="2.5" style="stroke:#181818;stroke-width:0.5;" width="137" x="687.5" y="223"/><ellipse cx="702.5" cy="239" fill="#ADD1B2" rx="11" ry="11" style="stroke:#181818;stroke-width:1.0;"/><path d="M705.2656,234.875 Q705.4219,234.6563 705.6094,234.5469 Q705.7969,234.4375 706.0156,234.4375 Q706.3906,234.4375 706.625,234.7031 Q706.8594,234.9531 706.8594,235.5625 L706.8594,237.0156 Q706.8594,237.625 706.625,237.8906 Q706.3906,238.1563 706.0156,238.1563 Q705.6719,238.1563 705.4688,237.9531 Q705.2656,237.7656 705.1563,237.25 Q705.1094,236.8906 704.9219,236.7031 Q704.5938,236.3281 703.9844,236.1094 Q703.375,235.8906 702.75,235.8906 Q701.9844,235.8906 701.3438,236.2188 Q700.7188,236.5469 700.2188,237.2969 Q699.7344,238.0469 699.7344,239.0781 L699.7344,240.1719 Q699.7344,241.4063 700.625,242.2344 Q701.5156,243.0469 703.1094,243.0469 Q704.0469,243.0469 704.7031,242.7969 Q705.0938,242.6406 705.5156,242.2031 Q705.7813,241.9375 705.9219,241.8594 Q706.0781,241.7813 706.2813,241.7813 Q706.6094,241.7813 706.8594,242.0469 Q707.125,242.2969 707.125,242.6406 Q707.125,242.9844 706.7813,243.3906 Q706.2813,243.9688 705.4844,244.2969 Q704.4063,244.75 703.1094,244.75 Q701.5938,244.75 700.3906,244.125 Q699.4063,243.625 698.7188,242.5625 Q698.0313,241.4844 698.0313,240.2031 L698.0313,239.0469 Q698.0313,237.7188 698.6406,236.5781 Q699.2656,235.4219 700.3594,234.8125 Q701.4531,234.1875 702.6875,234.1875 Q703.4219,234.1875 704.0625,234.3594 Q704.7188,234.5156 705.2656,234.875 Z " fill="#000000"/><text fill="#000000" font-family="sans-serif" font-size="14" lengthAdjust="spacing" textLength="105" x="716.5" y="244.7285">DailyRecurrence</text><line style="stroke:#181818;stroke-width:0.5;" x1="688.5" x2="823.5" y1="255" y2="255"/><line style="stroke:#181818;stroke-width:0.5;" x1="688.5" x2="823.5" y1="263" y2="263"/></g><!--class WeeklyRecurrence--><g id="elem_WeeklyRecurrence"><rect codeLine="26" fill="#F1F1F1" height="48" id="WeeklyRecurrence" rx="2.5" ry="2.5" style="stroke:#181818;stroke-width:0.5;" width="152" x="860" y="223"/><ellipse cx="875" cy="239" fill="#ADD1B2" rx="11" ry="11" style="stroke:#181818;stroke-width:1.0;"/><path d="M877.7656,234.875 Q877.9219,234.6563 878.1094,234.5469 Q878.2969,234.4375 878.5156,234.4375 Q878.8906,234.4375 879.125,234.7031 Q879.3594,234.9531 879.3594,235.5625 L879.3594,237.0156 Q879.3594,237.625 879.125,237.8906 Q878.8906,238.1563 878.5156,238.1563 Q878.1719,238.1563 877.9688,237.9531 Q877.7656,237.7656 877.6563,237.25 Q877.6094,236.8906 877.4219,236.7031 Q877.0938,236.3281 876.4844,236.1094 Q875.875,235.8906 875.25,235.8906 Q874.4844,235.8906 873.8438,236.2188 Q873.2188,236.5469 872.7188,237.2969 Q872.2344,238.0469 872.2344,239.0781 L872.2344,240.1719 Q872.2344,241.4063 873.125,242.2344 Q874.0156,243.0469 875.6094,243.0469 Q876.5469,243.0469 877.2031,242.7969 Q877.5938,242.6406 878.0156,242.2031 Q878.2813,241.9375 878.4219,241.8594 Q878.5781,241.7813 878.7813,241.7813 Q879.1094,241.7813 879.3594,242.0469 Q879.625,242.2969 879.625,242.6406 Q879.625,242.9844 879.2813,243.3906 Q878.7813,243.9688 877.9844,244.2969 Q876.9063,244.75 875.6094,244.75 Q874.0938,244.75 872.8906,244.125 Q871.9063,243.625 871.2188,242.5625 Q870.5313,241.4844 870.5313,240.2031 L870.5313,239.0469 Q870.5313,237.7188 871.1406,236.5781 Q871.7656,235.4219 872.8594,234.8125 Q873.9531,234.1875 875.1875,234.1875 Q875.9219,234.1875 876.5625,234.3594 Q877.2188,234.5156 877.7656,234.875 Z " fill="#000000"/><text fill="#000000" font-family="sans-serif" font-size="14" lengthAdjust="spacing" textLength="120" x="889" y="244.7285">WeeklyRecurrence</text><line style="stroke:#181818;stroke-width:0.5;" x1="861" x2="1011" y1="255" y2="255"/><line style="stroke:#181818;stroke-width:0.5;" x1="861" x2="1011" y1="263" y2="263"/></g><!--class YearlyRecurrence--><g id="elem_YearlyRecurrence"><rect codeLine="27" fill="#F1F1F1" height="48" id="YearlyRecurrence" rx="2.5" ry="2.5" style="stroke:#181818;stroke-width:0.5;" width="146" x="1047" y="223"/><ellipse cx="1062" cy="239" fill="#ADD1B2" rx="11" ry="11" style="stroke:#181818;stroke-width:1.0;"/><path d="M1064.7656,234.875 Q1064.9219,234.6563 1065.1094,234.5469 Q1065.2969,234.4375 1065.5156,234.4375 Q1065.8906,234.4375 1066.125,234.7031 Q1066.3594,234.9531 1066.3594,235.5625 L1066.3594,237.0156 Q1066.3594,237.625 1066.125,237.8906 Q1065.8906,238.1563 1065.5156,238.1563 Q1065.1719,238.1563 1064.9688,237.9531 Q1064.7656,237.7656 1064.6563,237.25 Q1064.6094,236.8906 1064.4219,236.7031 Q1064.0938,236.3281 1063.4844,236.1094 Q1062.875,235.8906 1062.25,235.8906 Q1061.4844,235.8906 1060.8438,236.2188 Q1060.2188,236.5469 1059.7188,237.2969 Q1059.2344,238.0469 1059.2344,239.0781 L1059.2344,240.1719 Q1059.2344,241.4063 1060.125,242.2344 Q1061.0156,243.0469 1062.6094,243.0469 Q1063.5469,243.0469 1064.2031,242.7969 Q1064.5938,242.6406 1065.0156,242.2031 Q1065.2813,241.9375 1065.4219,241.8594 Q1065.5781,241.7813 1065.7813,241.7813 Q1066.1094,241.7813 1066.3594,242.0469 Q1066.625,242.2969 1066.625,242.6406 Q1066.625,242.9844 1066.2813,243.3906 Q1065.7813,243.9688 1064.9844,244.2969 Q1063.9063,244.75 1062.6094,244.75 Q1061.0938,244.75 1059.8906,244.125 Q1058.9063,243.625 1058.2188,242.5625 Q1057.5313,241.4844 1057.5313,240.2031 L1057.5313,239.0469 Q1057.5313,237.7188 1058.1406,236.5781 Q1058.7656,235.4219 1059.8594,234.8125 Q1060.9531,234.1875 1062.1875,234.1875 Q1062.9219,234.1875 1063.5625,234.3594 Q1064.2188,234.5156 1064.7656,234.875 Z " fill="#000000"/><text fill="#000000" font-family="sans-serif" font-size="14" lengthAdjust="spacing" textLength="114" x="1076" y="244.7285">YearlyRecurrence</text><line style="stroke:#181818;stroke-width:0.5;" x1="1048" x2="1192" y1="255" y2="255"/><line style="stroke:#181818;stroke-width:0.5;" x1="1048" x2="1192" y1="263" y2="263"/></g><!--class LocalDateTime--><g id="elem_LocalDateTime"><rect codeLine="34" fill="#F1F1F1" height="48" id="LocalDateTime" rx="2.5" ry="2.5" style="stroke:#181818;stroke-width:0.5;" width="127" x="692.5" y="331"/><ellipse cx="707.5" cy="347" fill="#F1F1F1" rx="11" ry="11" style="stroke:#181818;stroke-width:1.0;"/><path d="M705.6094,351.5625 Q705.3906,351.8281 705.25,351.9063 Q705.1094,351.9844 704.9219,351.9844 Q704.5313,351.9844 704.2813,351.7188 Q704.0469,351.4531 704.0469,350.8594 L704.0469,349.7031 Q704.0469,349.0938 704.2813,348.8438 Q704.5313,348.5781 704.9219,348.5781 Q705.2188,348.5781 705.4219,348.7344 Q705.625,348.8906 705.7344,349.2656 Q705.8438,349.625 705.9531,349.7656 Q706.2031,350.0156 706.8125,350.2813 Q707.4219,350.5469 708.1563,350.5469 Q709.2969,350.5469 710.0156,350.0156 Q710.4844,349.6875 710.4844,349.2188 Q710.4844,348.9063 710.2656,348.625 Q710.0469,348.3438 709.5313,348.1719 Q709.2031,348.0469 708.0469,347.8281 Q706.6563,347.5625 705.9375,347.2031 Q705.2188,346.8438 704.7969,346.1875 Q704.3906,345.5156 704.3906,344.7344 Q704.3906,343.5156 705.4063,342.6094 Q706.4375,341.6875 708.0781,341.6875 Q708.7344,341.6875 709.2813,341.8281 Q709.8438,341.9688 710.3125,342.2656 Q710.6406,341.9531 710.9688,341.9531 Q711.3438,341.9531 711.5781,342.2188 Q711.8125,342.4688 711.8125,343.0781 L711.8125,344.3594 Q711.8125,344.9688 711.5781,345.2344 Q711.3438,345.4844 710.9688,345.4844 Q710.6563,345.4844 710.4219,345.2969 Q710.2344,345.1563 710.1406,344.7344 Q710.0625,344.3125 709.9219,344.125 Q709.6719,343.8125 709.1875,343.6094 Q708.7188,343.3906 708.0781,343.3906 Q707.1563,343.3906 706.625,343.8125 Q706.0938,344.2344 706.0938,344.7031 Q706.0938,345.0156 706.3125,345.3125 Q706.5313,345.6094 706.9531,345.7813 Q707.2344,345.8906 708.5313,346.1563 Q709.8438,346.4063 710.5469,346.7188 Q711.25,347.0156 711.7188,347.6719 Q712.1875,348.3281 712.1875,349.2344 Q712.1875,350.5 711.2969,351.25 Q710.1094,352.25 708.2813,352.25 Q707.5781,352.25 706.9063,352.0781 Q706.25,351.9063 705.6094,351.5625 Z " fill="#000000"/><text fill="#000000" font-family="sans-serif" font-size="14" lengthAdjust="spacing" textLength="95" x="721.5" y="352.7285">LocalDateTime</text><line style="stroke:#181818;stroke-width:0.5;" x1="693.5" x2="818.5" y1="363" y2="363"/><line style="stroke:#181818;stroke-width:0.5;" x1="693.5" x2="818.5" y1="371" y2="371"/></g><!--class CalendarService--><g id="elem_CalendarService"><rect codeLine="44" fill="#F1F1F1" height="48" id="CalendarService" rx="2.5" ry="2.5" style="stroke:#181818;stroke-width:0.5;" width="137" x="717.5" y="7"/><ellipse cx="732.5" cy="23" fill="#ADD1B2" rx="11" ry="11" style="stroke:#181818;stroke-width:1.0;"/><path d="M735.2656,18.875 Q735.4219,18.6563 735.6094,18.5469 Q735.7969,18.4375 736.0156,18.4375 Q736.3906,18.4375 736.625,18.7031 Q736.8594,18.9531 736.8594,19.5625 L736.8594,21.0156 Q736.8594,21.625 736.625,21.8906 Q736.3906,22.1563 736.0156,22.1563 Q735.6719,22.1563 735.4688,21.9531 Q735.2656,21.7656 735.1563,21.25 Q735.1094,20.8906 734.9219,20.7031 Q734.5938,20.3281 733.9844,20.1094 Q733.375,19.8906 732.75,19.8906 Q731.9844,19.8906 731.3438,20.2188 Q730.7188,20.5469 730.2188,21.2969 Q729.7344,22.0469 729.7344,23.0781 L729.7344,24.1719 Q729.7344,25.4063 730.625,26.2344 Q731.5156,27.0469 733.1094,27.0469 Q734.0469,27.0469 734.7031,26.7969 Q735.0938,26.6406 735.5156,26.2031 Q735.7813,25.9375 735.9219,25.8594 Q736.0781,25.7813 736.2813,25.7813 Q736.6094,25.7813 736.8594,26.0469 Q737.125,26.2969 737.125,26.6406 Q737.125,26.9844 736.7813,27.3906 Q736.2813,27.9688 735.4844,28.2969 Q734.4063,28.75 733.1094,28.75 Q731.5938,28.75 730.3906,28.125 Q729.4063,27.625 728.7188,26.5625 Q728.0313,25.4844 728.0313,24.2031 L728.0313,23.0469 Q728.0313,21.7188 728.6406,20.5781 Q729.2656,19.4219 730.3594,18.8125 Q731.4531,18.1875 732.6875,18.1875 Q733.4219,18.1875 734.0625,18.3594 Q734.7188,18.5156 735.2656,18.875 Z " fill="#000000"/><text fill="#000000" font-family="sans-serif" font-size="14" lengthAdjust="spacing" textLength="105" x="746.5" y="28.7285">CalendarService</text><line style="stroke:#181818;stroke-width:0.5;" x1="718.5" x2="853.5" y1="39" y2="39"/><line style="stroke:#181818;stroke-width:0.5;" x1="718.5" x2="853.5" y1="47" y2="47"/></g><!--class Interval--><g id="elem_Interval"><rect codeLine="46" fill="#F1F1F1" height="48" id="Interval" rx="2.5" ry="2.5" style="stroke:#181818;stroke-width:0.5;" width="78" x="717" y="439"/><ellipse cx="732" cy="455" fill="#F1F1F1" rx="11" ry="11" style="stroke:#181818;stroke-width:1.0;"/><path d="M730.1094,459.5625 Q729.8906,459.8281 729.75,459.9063 Q729.6094,459.9844 729.4219,459.9844 Q729.0313,459.9844 728.7813,459.7188 Q728.5469,459.4531 728.5469,458.8594 L728.5469,457.7031 Q728.5469,457.0938 728.7813,456.8438 Q729.0313,456.5781 729.4219,456.5781 Q729.7188,456.5781 729.9219,456.7344 Q730.125,456.8906 730.2344,457.2656 Q730.3438,457.625 730.4531,457.7656 Q730.7031,458.0156 731.3125,458.2813 Q731.9219,458.5469 732.6563,458.5469 Q733.7969,458.5469 734.5156,458.0156 Q734.9844,457.6875 734.9844,457.2188 Q734.9844,456.9063 734.7656,456.625 Q734.5469,456.3438 734.0313,456.1719 Q733.7031,456.0469 732.5469,455.8281 Q731.1563,455.5625 730.4375,455.2031 Q729.7188,454.8438 729.2969,454.1875 Q728.8906,453.5156 728.8906,452.7344 Q728.8906,451.5156 729.9063,450.6094 Q730.9375,449.6875 732.5781,449.6875 Q733.2344,449.6875 733.7813,449.8281 Q734.3438,449.9688 734.8125,450.2656 Q735.1406,449.9531 735.4688,449.9531 Q735.8438,449.9531 736.0781,450.2188 Q736.3125,450.4688 736.3125,451.0781 L736.3125,452.3594 Q736.3125,452.9688 736.0781,453.2344 Q735.8438,453.4844 735.4688,453.4844 Q735.1563,453.4844 734.9219,453.2969 Q734.7344,453.1563 734.6406,452.7344 Q734.5625,452.3125 734.4219,452.125 Q734.1719,451.8125 733.6875,451.6094 Q733.2188,451.3906 732.5781,451.3906 Q731.6563,451.3906 731.125,451.8125 Q730.5938,452.2344 730.5938,452.7031 Q730.5938,453.0156 730.8125,453.3125 Q731.0313,453.6094 731.4531,453.7813 Q731.7344,453.8906 733.0313,454.1563 Q734.3438,454.4063 735.0469,454.7188 Q735.75,455.0156 736.2188,455.6719 Q736.6875,456.3281 736.6875,457.2344 Q736.6875,458.5 735.7969,459.25 Q734.6094,460.25 732.7813,460.25 Q732.0781,460.25 731.4063,460.0781 Q730.75,459.9063 730.1094,459.5625 Z " fill="#000000"/><text fill="#000000" font-family="sans-serif" font-size="14" lengthAdjust="spacing" textLength="46" x="746" y="460.7285">Interval</text><line style="stroke:#181818;stroke-width:0.5;" x1="718" x2="794" y1="471" y2="471"/><line style="stroke:#181818;stroke-width:0.5;" x1="718" x2="794" y1="479" y2="479"/></g><!--class ICalRepo--><g id="elem_ICalRepo"><rect codeLine="50" fill="#F1F1F1" height="48" id="ICalRepo" rx="2.5" ry="2.5" style="stroke:#181818;stroke-width:0.5;" width="90" x="952" y="7"/><ellipse cx="967" cy="23" fill="#ADD1B2" rx="11" ry="11" style="stroke:#181818;stroke-width:1.0;"/><path d="M969.7656,18.875 Q969.9219,18.6563 970.1094,18.5469 Q970.2969,18.4375 970.5156,18.4375 Q970.8906,18.4375 971.125,18.7031 Q971.3594,18.9531 971.3594,19.5625 L971.3594,21.0156 Q971.3594,21.625 971.125,21.8906 Q970.8906,22.1563 970.5156,22.1563 Q970.1719,22.1563 969.9688,21.9531 Q969.7656,21.7656 969.6563,21.25 Q969.6094,20.8906 969.4219,20.7031 Q969.0938,20.3281 968.4844,20.1094 Q967.875,19.8906 967.25,19.8906 Q966.4844,19.8906 965.8438,20.2188 Q965.2188,20.5469 964.7188,21.2969 Q964.2344,22.0469 964.2344,23.0781 L964.2344,24.1719 Q964.2344,25.4063 965.125,26.2344 Q966.0156,27.0469 967.6094,27.0469 Q968.5469,27.0469 969.2031,26.7969 Q969.5938,26.6406 970.0156,26.2031 Q970.2813,25.9375 970.4219,25.8594 Q970.5781,25.7813 970.7813,25.7813 Q971.1094,25.7813 971.3594,26.0469 Q971.625,26.2969 971.625,26.6406 Q971.625,26.9844 971.2813,27.3906 Q970.7813,27.9688 969.9844,28.2969 Q968.9063,28.75 967.6094,28.75 Q966.0938,28.75 964.8906,28.125 Q963.9063,27.625 963.2188,26.5625 Q962.5313,25.4844 962.5313,24.2031 L962.5313,23.0469 Q962.5313,21.7188 963.1406,20.5781 Q963.7656,19.4219 964.8594,18.8125 Q965.9531,18.1875 967.1875,18.1875 Q967.9219,18.1875 968.5625,18.3594 Q969.2188,18.5156 969.7656,18.875 Z " fill="#000000"/><text fill="#000000" font-family="sans-serif" font-size="14" lengthAdjust="spacing" textLength="58" x="981" y="28.7285">ICalRepo</text><line style="stroke:#181818;stroke-width:0.5;" x1="953" x2="1041" y1="39" y2="39"/><line style="stroke:#181818;stroke-width:0.5;" x1="953" x2="1041" y1="47" y2="47"/></g><!--class Html2Text--><g id="elem_Html2Text"><rect codeLine="52" fill="#F1F1F1" height="48" id="Html2Text" rx="2.5" ry="2.5" style="stroke:#181818;stroke-width:0.5;" width="94" x="950" y="115"/><ellipse cx="965" cy="131" fill="#ADD1B2" rx="11" ry="11" style="stroke:#181818;stroke-width:1.0;"/><path d="M967.7656,126.875 Q967.9219,126.6563 968.1094,126.5469 Q968.2969,126.4375 968.5156,126.4375 Q968.8906,126.4375 969.125,126.7031 Q969.3594,126.9531 969.3594,127.5625 L969.3594,129.0156 Q969.3594,129.625 969.125,129.8906 Q968.8906,130.1563 968.5156,130.1563 Q968.1719,130.1563 967.9688,129.9531 Q967.7656,129.7656 967.6563,129.25 Q967.6094,128.8906 967.4219,128.7031 Q967.0938,128.3281 966.4844,128.1094 Q965.875,127.8906 965.25,127.8906 Q964.4844,127.8906 963.8438,128.2188 Q963.2188,128.5469 962.7188,129.2969 Q962.2344,130.0469 962.2344,131.0781 L962.2344,132.1719 Q962.2344,133.4063 963.125,134.2344 Q964.0156,135.0469 965.6094,135.0469 Q966.5469,135.0469 967.2031,134.7969 Q967.5938,134.6406 968.0156,134.2031 Q968.2813,133.9375 968.4219,133.8594 Q968.5781,133.7813 968.7813,133.7813 Q969.1094,133.7813 969.3594,134.0469 Q969.625,134.2969 969.625,134.6406 Q969.625,134.9844 969.2813,135.3906 Q968.7813,135.9688 967.9844,136.2969 Q966.9063,136.75 965.6094,136.75 Q964.0938,136.75 962.8906,136.125 Q961.9063,135.625 961.2188,134.5625 Q960.5313,133.4844 960.5313,132.2031 L960.5313,131.0469 Q960.5313,129.7188 961.1406,128.5781 Q961.7656,127.4219 962.8594,126.8125 Q963.9531,126.1875 965.1875,126.1875 Q965.9219,126.1875 966.5625,126.3594 Q967.2188,126.5156 967.7656,126.875 Z " fill="#000000"/><text fill="#000000" font-family="sans-serif" font-size="14" lengthAdjust="spacing" textLength="62" x="979" y="136.7285">Html2Text</text><line style="stroke:#181818;stroke-width:0.5;" x1="951" x2="1043" y1="147" y2="147"/><line style="stroke:#181818;stroke-width:0.5;" x1="951" x2="1043" y1="155" y2="155"/></g><!--reverse link Document to Calendar--><g id="link_Document_Calendar"><path codeLine="9" d="M117.7954,62.9579 C154.3554,80.9779 188.76,97.95 224.91,115.77 " fill="none" id="Document-backto-Calendar" style="stroke:#181818;stroke-width:1.0;stroke-dasharray:7.0,7.0;"/><polygon fill="none" points="101.65,55,115.1427,68.3396,120.448,57.5761,101.65,55" style="stroke:#181818;stroke-width:1.0;"/></g><!--reverse link CsvCalendar to Calendar--><g id="link_CsvCalendar_Calendar"><path codeLine="10" d="M221.6692,69.692 C234.1692,87.352 240.95,96.94 253.5,114.68 " fill="none" id="CsvCalendar-backto-Calendar" style="stroke:#181818;stroke-width:1.0;"/><polygon fill="none" points="211.27,55,216.7719,73.1584,226.5666,66.2256,211.27,55" style="stroke:#181818;stroke-width:1.0;"/></g><!--reverse link TextCalendar to Calendar--><g id="link_TextCalendar_Calendar"><path codeLine="11" d="M319.0227,69.6293 C306.3627,87.2893 299.44,96.94 286.72,114.68 " fill="none" id="TextCalendar-backto-Calendar" style="stroke:#181818;stroke-width:1.0;"/><polygon fill="none" points="329.51,55,314.1462,66.1335,323.8991,73.1251,329.51,55" style="stroke:#181818;stroke-width:1.0;"/></g><!--reverse link ICalCalendar to Calendar--><g id="link_ICalCalendar_Calendar"><path codeLine="12" d="M431.4307,62.6162 C392.0507,81.0062 353.6,98.96 315.3,116.85 " fill="none" id="ICalCalendar-backto-Calendar" style="stroke:#181818;stroke-width:1.0;"/><polygon fill="none" points="447.74,55,428.892,57.1798,433.9695,68.0527,447.74,55" style="stroke:#181818;stroke-width:1.0;"/></g><!--reverse link CsvEvent to Event--><g id="link_CsvEvent_Event"><path codeLine="19" d="M419.192,178.4102 C429.852,196.0702 435.21,204.94 445.92,222.68 " fill="none" id="CsvEvent-backto-Event" style="stroke:#181818;stroke-width:1.0;"/><polygon fill="none" points="409.89,163,414.0552,181.5108,424.3287,175.3095,409.89,163" style="stroke:#181818;stroke-width:1.0;"/></g><!--reverse link TextEvent to Event--><g id="link_TextEvent_Event"><path codeLine="20" d="M501.49,178.3444 C490.66,196.0044 485.18,204.94 474.3,222.68 " fill="none" id="TextEvent-backto-Event" style="stroke:#181818;stroke-width:1.0;"/><polygon fill="none" points="510.9,163,496.3752,175.2078,506.6048,181.4811,510.9,163" style="stroke:#181818;stroke-width:1.0;"/></g><!--reverse link ICalEvent to Event--><g id="link_ICalEvent_Event"><path codeLine="21" d="M596.1044,171.6313 C560.8944,190.8713 527.08,209.35 494.26,227.28 " fill="none" id="ICalEvent-backto-Event" style="stroke:#181818;stroke-width:1.0;"/><polygon fill="none" points="611.9,163,593.2273,166.3661,598.9815,176.8965,611.9,163" style="stroke:#181818;stroke-width:1.0;"/></g><!--reverse link Recurrence to NoRecurrence--><g id="link_Recurrence_NoRecurrence"><path codeLine="29" d="M792.0162,167.3756 C746.3962,185.2156 697.5,204.34 650.22,222.84 " fill="none" id="Recurrence-backto-NoRecurrence" style="stroke:#181818;stroke-width:1.0;"/><polygon fill="none" points="808.78,160.82,789.831,161.7877,794.2014,172.9635,808.78,160.82" style="stroke:#181818;stroke-width:1.0;"/></g><!--reverse link Recurrence to DailyRecurrence--><g id="link_Recurrence_DailyRecurrence"><path codeLine="30" d="M826.2721,175.7279 C808.6121,193.3879 797.06,204.94 779.32,222.68 " fill="none" id="Recurrence-backto-DailyRecurrence" style="stroke:#181818;stroke-width:1.0;"/><polygon fill="none" points="839,163,822.0294,171.4853,830.5147,179.9706,839,163" style="stroke:#181818;stroke-width:1.0;"/></g><!--reverse link Recurrence to WeeklyRecurrence--><g id="link_Recurrence_WeeklyRecurrence"><path codeLine="31" d="M888.3587,177.7627 C900.6787,195.4227 907.34,204.94 919.72,222.68 " fill="none" id="Recurrence-backto-WeeklyRecurrence" style="stroke:#181818;stroke-width:1.0;"/><polygon fill="none" points="878.06,163,883.4379,181.1956,893.2796,174.3297,878.06,163" style="stroke:#181818;stroke-width:1.0;"/></g><!--reverse link Recurrence to YearlyRecurrence--><g id="link_Recurrence_YearlyRecurrence"><path codeLine="32" d="M931.7894,168.6709 C975.1594,186.4909 1019.62,204.76 1063.8,222.91 " fill="none" id="Recurrence-backto-YearlyRecurrence" style="stroke:#181818;stroke-width:1.0;"/><polygon fill="none" points="915.14,161.83,929.5091,174.2207,934.0697,163.1212,915.14,161.83" style="stroke:#181818;stroke-width:1.0;"/></g><!--reverse link Calendar to Event--><g id="link_Calendar_Event"><path codeLine="36" d="M321.7093,168.8467 C355.9793,187.9667 393.69,209.01 425.84,226.94 " fill="none" id="Calendar-backto-Event" style="stroke:#181818;stroke-width:1.0;"/><polygon fill="#181818" points="311.23,163,314.5208,169.4164,321.7093,168.8467,318.4186,162.4302,311.23,163" style="stroke:#181818;stroke-width:1.0;"/></g><!--link Event to LocalDateTime--><g id="link_Event_LocalDateTime"><path codeLine="38" d="M494.22,263.65 C500.12,266.2 506.21,268.74 512,271 C572.44,294.59 642.69,318.09 692.25,334.03 " fill="none" id="Event-LocalDateTime" style="stroke:#181818;stroke-width:1.0;"/></g><!--link NoRecurrence to LocalDateTime--><g id="link_NoRecurrence_LocalDateTime"><path codeLine="39" d="M626.8,271 C654.38,288.72 692.35,313.11 719.98,330.86 " fill="none" id="NoRecurrence-LocalDateTime" style="stroke:#181818;stroke-width:1.0;"/></g><!--link DailyRecurrence to LocalDateTime--><g id="link_DailyRecurrence_LocalDateTime"><path codeLine="40" d="M756,271 C756,288.66 756,312.94 756,330.68 " fill="none" id="DailyRecurrence-LocalDateTime" style="stroke:#181818;stroke-width:1.0;"/></g><!--link WeeklyRecurrence to LocalDateTime--><g id="link_WeeklyRecurrence_LocalDateTime"><path codeLine="41" d="M896.94,271 C866.85,288.72 825.44,313.11 795.29,330.86 " fill="none" id="WeeklyRecurrence-LocalDateTime" style="stroke:#181818;stroke-width:1.0;"/></g><!--link YearlyRecurrence to LocalDateTime--><g id="link_YearlyRecurrence_LocalDateTime"><path codeLine="42" d="M1046.78,269.32 C980.24,288.7 883.06,317 819.68,335.46 " fill="none" id="YearlyRecurrence-LocalDateTime" style="stroke:#181818;stroke-width:1.0;"/></g><!--link LocalDateTime to Interval--><g id="link_LocalDateTime_Interval"><path codeLine="48" d="M756,379 C756,396.66 756,414.94 756,432.68 " fill="none" id="LocalDateTime-to-Interval" style="stroke:#181818;stroke-width:1.0;"/><polygon fill="#181818" points="756,438.68,760,429.68,756,433.68,752,429.68,756,438.68" style="stroke:#181818;stroke-width:1.0;"/></g><!--reverse link ICalRepo to Html2Text--><g id="link_ICalRepo_Html2Text"><path codeLine="54" d="M997,67 C997,84.66 997,96.94 997,114.68 " fill="none" id="ICalRepo-backto-Html2Text" style="stroke:#181818;stroke-width:1.0;"/><polygon fill="none" points="997,55,993,61,997,67,1001,61,997,55" style="stroke:#181818;stroke-width:1.0;"/></g><!--SRC=[RPCnQyCm48Nt-nMQ2ydGkNI90mcK3ccWTBmgLn2LhI3Bfe7- -4eeikIxBiRwtkdTErasGo3_XPfKv_JKqn00uiE4czgXfU627gxU1QUTLRjnbl1CFq7IOqGBXUAjddwtsshS-4LbiwbAQygarfb99Vb-JdEqiHb9zWmbsuoWr6Vt39STBLpsj13mSmmUTL0dqfFtD6W2RN4SrQiJg4DZRuA-4tt_Wpy8_Gf3VSyHLXsuo7jnNNJb1R9_d7IAaxuuZRR3G6VJHxfydeTwAlcSudfTsmQMAaii2tXaMS4pouhxuPRGR-HdqynsJ7_8Z1PWjItwF3TQzaWNuaHNLzQ7qDl7T7K0YgHS353v7m00]--></g></svg>